<svg width="35" height="35" viewBox="0 0 35 35" fill="none" xmlns="http://www.w3.org/2000/svg">
<path d="M17.599 0C16.605 0.00469786 15.6115 0.048969 14.621 0.132708C12.5334 0.305481 10.4622 0.639463 8.42604 1.13167C6.95026 1.50465 5.50088 1.97527 4.0875 2.54042L4 2.5725C4 2.5725 4.17208 13.1352 4.30625 18.3677C4.34081 19.9082 4.62093 21.4334 5.13604 22.8856C5.73216 24.5379 6.52643 26.1117 7.50146 27.5727C8.52154 29.0814 9.75556 30.4339 11.1648 31.5875C11.7157 32.0496 12.2964 32.4749 12.9031 32.8606C13.8547 33.4356 14.8482 33.9382 15.8752 34.3642C16.215 34.5071 16.511 34.6442 16.7794 34.736C17.0599 34.8433 17.3474 34.9315 17.6398 35C17.9322 34.931 18.2197 34.8423 18.5002 34.7346C18.7656 34.6427 19.0646 34.5071 19.4044 34.3627C20.4308 33.9366 21.4238 33.434 22.375 32.8592C22.9827 32.4734 23.5644 32.0482 24.1162 31.586C25.5249 30.4328 26.7584 29.0809 27.7781 27.5727C28.7533 26.1118 29.5476 24.5379 30.1435 22.8856C30.6591 21.4334 30.9398 19.9083 30.9748 18.3677C31.1075 13.1352 31.281 2.57833 31.281 2.57833C31.254 2.56433 31.2262 2.55168 31.1979 2.54042C29.7841 1.9752 28.3342 1.50458 26.8579 1.13167C24.8217 0.639943 22.7505 0.306448 20.6629 0.134167C19.6724 0.0505288 18.679 0.00577213 17.685 0L17.599 0ZM17.599 0.526458H17.6821C18.6723 0.538125 19.5604 0.570208 20.5448 0.657708C22.5522 0.82479 24.5435 1.14806 26.5006 1.62458C27.9203 1.98654 29.3142 2.44304 30.6729 2.99104C30.7012 3.00179 30.729 3.01396 30.756 3.0275L30.7006 6.34375C30.6919 6.33802 30.6826 6.33314 30.6729 6.32917C29.3146 5.78131 27.9212 5.32481 26.5021 4.96271C24.5444 4.48675 22.5526 4.16397 20.5448 3.99729C19.5604 3.90979 18.6767 3.85146 17.6865 3.83979H17.6019C16.6117 3.85292 15.7206 3.90979 14.7362 3.99729C12.7288 4.16547 10.7375 4.48971 8.78042 4.96708C7.36073 5.32958 5.96686 5.78657 4.60812 6.335C4.59796 6.33891 4.58819 6.34379 4.57896 6.34958L4.52354 3.02312L4.60812 2.99104C5.96639 2.44309 7.35977 1.98659 8.77896 1.62458C10.737 1.1474 12.7293 0.823637 14.7377 0.65625C15.7221 0.56875 16.6102 0.539583 17.6004 0.526458H17.599ZM18.019 0.841458C17.5805 0.833455 17.1418 0.837345 16.7035 0.853125C16.5271 0.860417 16.2835 1.01208 16.2806 1.18854L16.2704 2.13354C16.2675 2.32604 16.5212 2.47771 16.7152 2.48208C17.389 2.49667 17.984 2.485 18.6373 2.52583C18.6854 2.53021 18.7277 2.55938 18.7277 2.6075L18.7233 2.79708C18.7242 2.80598 18.7231 2.81497 18.7202 2.82341C18.7172 2.83185 18.7124 2.83953 18.7062 2.84593C18.6999 2.85232 18.6923 2.85727 18.684 2.86042C18.6756 2.86357 18.6666 2.86485 18.6577 2.86417C17.8979 2.86417 17.1031 2.82771 16.3346 2.88896C16.2937 2.89188 16.2952 2.88167 16.2937 2.9225L16.2587 3.4825L16.2558 3.52625C17.1699 3.47345 18.0863 3.47345 19.0004 3.52625C19.1071 3.52301 19.2094 3.48332 19.2903 3.41379C19.3713 3.34427 19.4259 3.24911 19.4452 3.14417L19.454 2.22979C19.454 2.04167 19.2235 1.90313 19.0733 1.89438C18.4287 1.85354 17.6952 1.87542 17.0404 1.85792C17.0313 1.85756 17.0224 1.85536 17.0142 1.85145C17.006 1.84755 16.9987 1.84202 16.9927 1.8352C16.9867 1.82839 16.9822 1.82042 16.9793 1.81179C16.9765 1.80316 16.9755 1.79405 16.9762 1.785L16.9894 1.57354C16.9894 1.53271 17.0171 1.52104 17.0579 1.51958C17.7054 1.49625 18.6723 1.52688 19.3358 1.54729C19.3601 1.5432 19.3821 1.53074 19.3981 1.51209C19.4141 1.49344 19.423 1.46977 19.4233 1.44521V0.982917C19.4233 0.958125 19.3767 0.885208 19.3315 0.88375V0.882292C18.8942 0.862733 18.4566 0.84912 18.019 0.841458ZM15.2773 0.934792C14.6604 0.946458 13.3217 1.11708 12.5619 1.21187L12.5575 3.85V3.88354L13.2429 3.79604C13.2458 3.79572 13.2486 3.79477 13.2512 3.79326C13.2537 3.79175 13.2558 3.78971 13.2575 3.78729C13.2608 3.78318 13.2624 3.77795 13.2619 3.77271V3.01L14.6429 2.86125C14.764 2.83938 14.9054 2.92833 15.0162 3.10771C15.1049 3.25938 15.1615 3.42765 15.1825 3.60208L15.8635 3.55104C15.8781 3.55104 15.9073 3.55104 15.9044 3.53646C15.8842 3.1688 15.724 2.82283 15.4567 2.56958C15.5457 2.53356 15.6212 2.47062 15.6727 2.38957C15.7242 2.30852 15.7491 2.21339 15.744 2.1175C15.7511 1.84293 15.7404 1.56818 15.7119 1.295C15.6886 1.19527 15.6331 1.10598 15.5541 1.04088C15.475 0.975787 15.3767 0.938508 15.2744 0.934792H15.2773ZM20.5127 0.9625C20.3708 0.957083 20.2318 1.00309 20.1211 1.09204C20.0104 1.181 19.9356 1.30693 19.9104 1.44667L19.8958 3.18938C19.9005 3.28811 19.9371 3.38264 20.0003 3.45868C20.0634 3.53472 20.1496 3.58813 20.2458 3.61083C21.1354 3.69396 22.0104 3.77417 23.0021 3.92438C23.0181 3.92438 23.0487 3.91417 23.0487 3.89958V3.29292C23.0487 3.27979 23.0196 3.25208 23.0094 3.24917C22.3473 3.16604 21.4737 3.04938 20.6921 2.96771C20.6689 2.96208 20.6481 2.9491 20.6328 2.93071C20.6176 2.91231 20.6087 2.88948 20.6075 2.86563V1.68146C20.6075 1.63188 20.6804 1.60563 20.73 1.60854C21.5015 1.67271 22.27 1.81271 23.04 1.89583C23.0604 1.89875 23.0925 1.88563 23.094 1.86521L23.1085 1.30813C23.1076 1.29664 23.1029 1.28577 23.0953 1.27711C23.0877 1.26845 23.0775 1.26245 23.0662 1.26C22.2181 1.14025 21.3671 1.04105 20.5142 0.9625H20.5127ZM23.4002 1.30813C23.3827 1.30813 23.3681 1.32854 23.3681 1.34458C23.3594 1.74417 23.3025 3.46938 23.2908 3.92875V3.96813C23.5169 4.0075 23.7662 4.03813 23.9515 4.07604C23.9719 4.07896 24.0025 4.06437 24.0025 4.04396C23.9996 3.74208 24.0025 3.39063 23.9967 3.11646C23.9967 3.0975 24.0054 3.09604 24.0258 3.09896C24.5634 3.19631 25.0992 3.30327 25.6329 3.41979C25.6446 3.41979 25.7087 3.43 25.7087 3.46354C25.7044 3.78 25.6985 4.04688 25.6898 4.36333C25.6893 4.37597 25.6929 4.38843 25.7 4.39891C25.7071 4.40939 25.7173 4.41736 25.7292 4.42167C25.9406 4.46979 26.1419 4.51937 26.3417 4.5675C26.3956 4.57917 26.4044 4.56896 26.4058 4.55C26.4379 3.89229 26.4496 2.83792 26.4583 1.94833C26.4583 1.93667 26.454 1.91917 26.4437 1.91625C26.2206 1.86521 26.0106 1.81125 25.7831 1.76313C25.7627 1.75875 25.751 1.79229 25.7496 1.81417C25.7277 2.13937 25.7365 2.44125 25.7117 2.765C25.7117 2.77667 25.7117 2.7825 25.6985 2.77958C25.159 2.66875 24.5829 2.54917 24.0477 2.44854C24.0331 2.44563 24.039 2.41938 24.0404 2.40333L24.0448 1.45104C24.0441 1.44062 24.04 1.43072 24.0331 1.42283C24.0263 1.41494 24.0171 1.40948 24.0069 1.40729C23.8045 1.37239 23.6018 1.33933 23.3987 1.30813H23.4002ZM11.7102 1.34167C11.6922 1.34057 11.6742 1.34057 11.6562 1.34167C10.8644 1.46708 10.0681 1.63479 9.26458 1.80833C9.13572 1.84567 9.01966 1.91783 8.92917 2.01688C8.84463 2.09494 8.7917 2.20132 8.78042 2.31583L8.78625 3.94625C8.79241 4.08932 8.8469 4.22607 8.94083 4.33417C8.97284 4.38385 9.01691 4.42462 9.06894 4.45267C9.12096 4.48072 9.17923 4.49514 9.23833 4.49458C10.0287 4.32043 10.8227 4.16338 11.6198 4.02354C11.7729 3.9874 11.9101 3.90243 12.0106 3.78146C12.0966 3.69017 12.1472 3.57127 12.1535 3.44604L12.1506 1.75C12.1455 1.69335 12.1285 1.6384 12.1009 1.58868C12.0733 1.53896 12.0356 1.49555 11.9902 1.46125C11.9139 1.39086 11.8153 1.34955 11.7117 1.34458L11.7102 1.34167ZM14.8558 1.62896C14.8845 1.62733 14.9127 1.63691 14.9345 1.65568C14.9563 1.67446 14.9699 1.70096 14.9725 1.72958L14.9769 2.00521C14.9759 2.06288 14.955 2.11845 14.9178 2.16254C14.8806 2.20664 14.8294 2.23657 14.7727 2.24729L13.224 2.39896L13.2108 2.38729V1.79375L13.224 1.78792L14.8442 1.63042C14.8481 1.63021 14.8519 1.63021 14.8558 1.63042V1.62896ZM11.1808 2.05187C11.2208 2.05307 11.2599 2.06409 11.2946 2.08396C11.3203 2.10033 11.3412 2.12331 11.3551 2.15049C11.3689 2.17768 11.3752 2.20809 11.3733 2.23854L11.3602 3.26521C11.3615 3.2946 11.3557 3.32389 11.3433 3.35055C11.3308 3.37722 11.3121 3.40047 11.2887 3.41833C11.2363 3.45397 11.1765 3.47739 11.1137 3.48688C10.6299 3.58326 10.1452 3.67562 9.65979 3.76396C9.63789 3.76945 9.61505 3.77008 9.59288 3.76579C9.5707 3.76151 9.54974 3.75242 9.53146 3.73917C9.51471 3.71907 9.50219 3.69578 9.49468 3.67072C9.48716 3.64566 9.48479 3.61934 9.48771 3.59333V2.53458C9.48853 2.48174 9.50938 2.43118 9.54604 2.39313C9.59501 2.34811 9.65565 2.31779 9.72104 2.30562C10.144 2.22688 10.6981 2.1175 11.1327 2.05479C11.1486 2.05223 11.1647 2.05125 11.1808 2.05187ZM26.9454 2.05187L26.944 2.05333C26.9323 2.05333 26.9323 2.07083 26.9323 2.08104C26.9119 2.96479 26.8885 3.78292 26.8812 4.66667C26.8812 4.68563 26.89 4.71042 26.9075 4.71479C27.9732 5.00132 29.0236 5.34204 30.0546 5.73563C30.1012 5.75167 30.0998 5.71667 30.0998 5.70354C30.1042 5.50229 30.1144 5.29812 30.1042 5.09688C30.1029 5.08634 30.0989 5.07633 30.0925 5.06787C30.0861 5.05942 30.0775 5.05282 30.0677 5.04875C29.2752 4.74349 28.4671 4.48014 27.6469 4.25979C27.6389 4.25709 27.632 4.252 27.627 4.24522C27.6221 4.23843 27.6193 4.23028 27.6192 4.22188L27.6308 3.95937C27.6308 3.94771 27.6512 3.94479 27.6629 3.94771C28.485 4.17844 29.2974 4.44213 30.0983 4.73813C30.1129 4.7425 30.1129 4.72354 30.1129 4.71042C30.1233 4.48304 30.1233 4.2553 30.1129 4.02792C30.1124 4.01939 30.1094 4.01121 30.1042 4.00444C30.099 3.99767 30.0919 3.99264 30.0838 3.99C29.298 3.70395 28.5011 3.44951 27.695 3.22729C27.6833 3.22438 27.6688 3.21271 27.6688 3.20104V2.92104C27.6688 2.90938 27.6877 2.90208 27.6994 2.90646C28.5219 3.11646 29.426 3.43146 30.0546 3.66333C30.11 3.68375 30.1421 3.675 30.1421 3.62396C30.1421 3.395 30.1508 3.37896 30.1392 3.15146C30.1362 3.12229 30.1333 3.09313 30.1071 3.08292C29.0718 2.6832 28.0159 2.33903 26.944 2.05187H26.9454ZM8.03083 2.14521C7.98963 2.14483 7.94852 2.14923 7.90833 2.15833C6.96042 2.40042 6.00812 2.76208 5.05583 3.10917C5.04281 3.11717 5.03198 3.1283 5.02434 3.14154C5.01671 3.15478 5.01249 3.16972 5.01208 3.185V5.32292L5.01646 5.80417C5.01646 5.80417 5.70333 5.54604 5.85208 5.49792C5.87104 5.49208 5.87104 5.47313 5.87104 5.45271L5.85646 4.69438C5.85646 4.6725 5.85938 4.64042 5.87979 4.63604L8.24958 3.90396C8.3293 3.87499 8.39911 3.82389 8.45083 3.75667C8.50245 3.69231 8.52935 3.61162 8.52667 3.52917L8.50187 2.53313C8.49571 2.47546 8.47697 2.41986 8.44699 2.37022C8.417 2.32058 8.3765 2.27812 8.32833 2.24583C8.24137 2.18365 8.13771 2.1491 8.03083 2.14667V2.14521ZM7.61375 2.86854C7.66625 2.85396 7.71583 2.91375 7.71875 2.96042C7.73276 3.08141 7.73861 3.20322 7.73625 3.325C7.73479 3.39062 7.64 3.46646 7.57583 3.48542L5.84917 4.04833C5.83312 4.05417 5.80396 4.04833 5.80396 4.03083L5.80687 3.50875C5.80687 3.48396 5.83604 3.46354 5.85937 3.45625C6.43214 3.22613 7.01794 3.02988 7.61375 2.86854ZM17.774 4.29917C18.7262 4.31375 19.591 4.34292 20.5448 4.4275C22.5517 4.59469 24.5425 4.91796 26.4992 5.39437C27.9189 5.75621 29.3128 6.21272 30.6715 6.76083C30.6785 6.76373 30.6853 6.76715 30.6919 6.77104C30.6879 6.98881 30.6845 7.20659 30.6817 7.42438H17.774V4.29917ZM17.3117 4.30208L17.3102 11.0367H13.0125C12.9498 11.0308 12.9906 11.0031 13.0344 10.9608C13.3422 10.7309 13.6991 10.5751 14.0771 10.5058C14.1092 10.5029 14.1179 10.4854 14.0727 10.4271C13.8985 10.2534 13.6789 10.1322 13.439 10.0775C13.1992 10.0229 12.9487 10.0369 12.7165 10.1179C12.5077 10.1853 12.3171 10.2996 12.1594 10.452C12.0017 10.6044 11.8809 10.791 11.8065 10.9973C11.8034 11.0104 11.796 11.0221 11.7853 11.0303C11.7747 11.0385 11.7616 11.0428 11.7481 11.0425C11.5199 11.0568 11.2913 11.0631 11.0627 11.0615C11.0262 11.0615 11.0087 11.0148 11.0117 10.9798C11.0416 10.8339 11.1015 10.6958 11.1876 10.5743C11.2737 10.4528 11.3841 10.3505 11.5119 10.274C11.7382 10.1249 11.9986 10.0356 12.2687 10.0144C12.2779 10.0116 12.2861 10.0067 12.2929 10.0001C12.2997 9.99342 12.3047 9.9852 12.3076 9.97614C12.3105 9.96709 12.3111 9.95747 12.3094 9.94812C12.3077 9.93877 12.3038 9.92998 12.2979 9.9225C12.2533 9.87052 12.2018 9.82489 12.1448 9.78687C11.9201 9.6657 11.6604 9.62602 11.4098 9.67458C11.051 9.70938 10.7159 9.86929 10.4631 10.1263C10.2104 10.3833 10.0561 10.7211 10.0273 11.0804C10.0127 11.1679 10.036 11.1883 9.95 11.2175C9.78667 11.2729 9.48042 11.3108 9.31708 11.3458C9.28792 11.3502 9.24417 11.2831 9.25146 11.254C9.31205 10.9769 9.43361 10.7169 9.60729 10.4927C9.73944 10.3155 9.90994 10.1704 10.106 10.0683C10.144 10.0494 10.179 10.0042 10.144 9.975C9.775 9.65417 9.01958 9.9925 8.71479 10.3265C8.427 10.7068 8.28475 11.1775 8.31375 11.6535C8.31375 11.6769 8.33417 11.7133 8.31375 11.7221C8.12255 11.8034 7.92792 11.8764 7.73042 11.9408C7.71292 11.9452 7.71 11.9 7.70708 11.8825C7.64873 11.5381 7.72552 11.1844 7.92146 10.8952C8.00708 10.7488 8.12982 10.6276 8.27729 10.5438C8.29187 10.535 8.28896 10.5175 8.27729 10.5029C8.10958 10.2856 7.4475 10.4417 7.24479 10.64C6.77813 11.095 6.81167 11.5369 6.78979 12.2398C6.78833 12.2733 6.74604 12.4017 6.70813 12.4192C6.62528 12.4685 6.53448 12.503 6.43979 12.5213C6.40917 12.53 6.40625 12.5417 6.39896 12.511C6.37377 12.429 6.33034 12.3537 6.27193 12.2909C6.21352 12.228 6.14164 12.1792 6.06167 12.148C5.98171 12.1169 5.89573 12.1042 5.81019 12.111C5.72464 12.1178 5.64175 12.1439 5.56771 12.1873C5.5052 12.2275 5.45204 12.2806 5.41184 12.3431C5.37164 12.4056 5.34533 12.4761 5.33468 12.5496C5.32404 12.6232 5.32931 12.6981 5.35014 12.7695C5.37096 12.8408 5.40687 12.9069 5.45542 12.9631C5.47729 12.9879 5.48458 13.0127 5.45104 13.0229C5.37305 13.0469 5.30064 13.0863 5.23806 13.1386C5.17549 13.191 5.12401 13.2554 5.08665 13.3279C5.04929 13.4004 5.0268 13.4797 5.02051 13.5611C5.01422 13.6424 5.02424 13.7242 5.05 13.8017C5.08508 13.8887 5.14441 13.9638 5.22093 14.0181C5.29745 14.0724 5.38795 14.1036 5.48167 14.1079C5.67359 14.1133 5.86234 14.0582 6.02125 13.9504C6.02795 13.9456 6.03553 13.9422 6.04356 13.9403C6.05158 13.9385 6.0599 13.9382 6.06802 13.9396C6.07615 13.9409 6.08393 13.9439 6.09091 13.9482C6.0979 13.9526 6.10396 13.9583 6.10875 13.965C6.18757 14.0915 6.31337 14.1816 6.45854 14.2155C6.60372 14.2494 6.75641 14.2244 6.88312 14.1458C7.11937 13.9898 7.22437 13.7477 7.04937 13.3306C7.03917 13.3073 7.07854 13.2635 7.09896 13.2519C8.49606 12.4477 10.0724 12.0065 11.684 11.9685C11.9111 11.9882 12.1347 12.0377 12.349 12.1158C12.3606 12.1183 12.3719 12.1222 12.3825 12.1275L12.3854 13.4998C12.3703 13.5137 12.3537 13.526 12.3358 13.5363C12.0366 13.7196 11.813 14.0042 11.7058 14.3383C11.7 14.3631 11.6971 14.369 11.6548 14.3733C11.3733 14.401 11.0729 14.4419 10.7929 14.4638C10.7769 14.4667 10.7462 14.436 10.7521 14.42C10.955 13.8775 11.3253 13.4138 11.8094 13.0958C11.8219 13.0832 11.8301 13.067 11.8328 13.0494C11.8354 13.0318 11.8323 13.0138 11.824 12.9981C11.7554 12.9324 11.671 12.8857 11.579 12.8625C11.3354 12.844 11.0909 12.882 10.8645 12.9736C10.6381 13.0652 10.4359 13.2078 10.2737 13.3904C9.98311 13.7526 9.82283 14.2021 9.81875 14.6665C9.81729 14.6985 9.82312 14.751 9.79104 14.7613C9.61021 14.8181 9.41042 14.8692 9.22229 14.9217C9.20042 14.9275 9.17125 14.9056 9.16687 14.8823C9.11939 14.5896 9.1617 14.2894 9.28822 14.0213C9.41474 13.7532 9.61954 13.5296 9.87563 13.3802C9.95 13.3219 9.82021 13.2315 9.72687 13.2315C9.45379 13.2167 9.18232 13.2819 8.9458 13.4192C8.70927 13.5565 8.51799 13.7599 8.39542 14.0044C8.26075 14.3759 8.24546 14.7802 8.35167 15.1608C8.35604 15.1944 8.37937 15.2527 8.34292 15.2615C8.22771 15.2892 7.95646 15.3927 7.87187 15.419C7.84125 15.4292 7.82083 15.4146 7.80333 15.3752C7.73683 15.1438 7.72633 14.8998 7.77271 14.6635C7.83877 14.3942 7.97341 14.1465 8.16354 13.9446C8.17521 13.93 8.17958 13.8979 8.16354 13.8906C7.99022 13.8123 7.79442 13.7994 7.61229 13.8542C7.46362 13.8918 7.32469 13.9607 7.20474 14.0563C7.08479 14.1518 6.98658 14.2718 6.91667 14.4083C6.68479 14.8415 6.74458 15.2585 6.99104 15.874C7.00271 15.9031 7.01729 15.9585 6.99104 15.976L6.79125 16.0927C6.76646 16.1117 6.74458 16.0956 6.72708 16.0708C6.64688 15.9571 6.54625 15.7762 6.42083 15.7208C6.32203 15.6716 6.21165 15.6503 6.10163 15.6593C5.99162 15.6683 5.88616 15.7073 5.79667 15.7719C5.70914 15.848 5.64589 15.9481 5.61478 16.0599C5.58367 16.1716 5.58606 16.29 5.62167 16.4004C5.66244 16.4792 5.71132 16.5535 5.7675 16.6221C5.78208 16.6425 5.76604 16.6746 5.74854 16.6906C5.6625 16.7665 5.54437 16.8219 5.47437 16.8948C5.39849 16.9925 5.3561 17.1121 5.35348 17.2358C5.35085 17.3595 5.38813 17.4808 5.45979 17.5817C5.53104 17.6835 5.63566 17.7571 5.75552 17.7899C5.87538 17.8226 6.00292 17.8124 6.11604 17.761C6.23343 17.7109 6.34658 17.6515 6.45437 17.5831C6.49375 17.5569 6.52 17.5087 6.55646 17.5467C6.64484 17.6473 6.7572 17.7241 6.88312 17.7698C6.97058 17.7931 7.06207 17.7972 7.15123 17.7815C7.24038 17.7659 7.32507 17.7311 7.39937 17.6794C7.48961 17.6366 7.56284 17.5648 7.60728 17.4754C7.65172 17.386 7.66479 17.2842 7.64437 17.1865C7.59849 17.044 7.5279 16.9107 7.43583 16.7927C7.38771 16.7417 7.38479 16.7446 7.43583 16.714C8.19674 16.2647 9.00971 15.9101 9.85667 15.6581C10.655 15.418 11.4885 15.3159 12.3212 15.3562H12.3883L12.3927 18.1985H4.81521C4.73646 15.0879 4.64604 10.1631 4.58771 6.77104C4.59427 6.76717 4.60109 6.76376 4.60812 6.76083C5.96635 6.21277 7.35974 5.75626 8.77896 5.39437C10.7361 4.91788 12.7274 4.59461 14.7348 4.4275C15.5923 4.35316 16.4524 4.31133 17.3131 4.30208H17.3117ZM12.8083 5.49208C12.4451 5.50051 12.0928 5.61843 11.7977 5.83042C11.3806 6.10458 11.1327 6.95771 11.0831 7.2625C11.0806 7.27647 11.0735 7.28921 11.0629 7.29871C11.0524 7.30821 11.039 7.31394 11.0248 7.315C10.693 7.35687 10.3638 7.41773 10.039 7.49729C10.0287 7.49875 10.0215 7.48271 10.0215 7.4725C10.0467 7.15159 10.1792 6.84851 10.3977 6.61208C10.6195 6.39832 10.8601 6.20503 11.1167 6.03458C11.1356 6.01854 11.1225 5.96896 11.0992 5.96021C10.9139 5.88616 10.7158 5.84958 10.5163 5.85258C10.3168 5.85559 10.1198 5.89811 9.93687 5.97771C9.6787 6.08719 9.45277 6.26079 9.2805 6.48206C9.10822 6.70334 8.99532 6.96495 8.9525 7.24208C8.91852 7.43948 8.90436 7.63978 8.91021 7.84C8.91312 7.86479 8.86646 7.86625 8.84458 7.87354C8.48583 7.98583 8.10958 8.11708 7.80917 8.21771C7.79458 8.22354 7.75229 8.22062 7.75229 8.20312C7.74105 7.86649 7.82986 7.53408 8.0075 7.24792C8.1825 6.96354 8.50771 6.80312 8.74396 6.56396C8.76 6.54646 8.78479 6.49979 8.76 6.48958C8.16208 6.24896 7.59771 6.49542 7.12083 7.03646C6.95937 7.27366 6.84991 7.54233 6.79964 7.82484C6.74937 8.10734 6.75943 8.39729 6.82917 8.67562C6.84229 8.72812 6.82917 8.785 6.80146 8.79667C6.69274 8.84753 6.58068 8.89089 6.46604 8.92646C6.46096 8.92824 6.45556 8.92887 6.45021 8.92831C6.44486 8.92775 6.4397 8.92601 6.4351 8.92323C6.4305 8.92044 6.42657 8.91667 6.4236 8.91218C6.42063 8.9077 6.41869 8.90261 6.41792 8.89729C6.28229 8.46562 5.77625 8.55021 5.54729 8.68146C5.42629 8.74957 5.33709 8.86272 5.29912 8.99629C5.26116 9.12985 5.2775 9.27301 5.34458 9.39458C5.34802 9.3997 5.35037 9.40546 5.3515 9.41152C5.35263 9.41758 5.35251 9.42381 5.35114 9.42981C5.34978 9.43582 5.3472 9.44149 5.34356 9.44647C5.33992 9.45144 5.33531 9.45562 5.33 9.45875C5.25281 9.49564 5.18373 9.54752 5.1268 9.61138C5.06986 9.67523 5.02621 9.74979 4.99838 9.83069C4.97056 9.91159 4.95912 9.99722 4.96472 10.0826C4.97033 10.168 4.99287 10.2514 5.03104 10.3279C5.09548 10.4287 5.19312 10.5039 5.30709 10.5404C5.42106 10.5769 5.54419 10.5724 5.65521 10.5277C5.78163 10.479 5.90201 10.4159 6.01396 10.3396C6.021 10.3361 6.02893 10.3348 6.03673 10.3358C6.04452 10.3368 6.05183 10.3402 6.05771 10.3454C6.10281 10.4091 6.16045 10.4629 6.22709 10.5036C6.29373 10.5442 6.36797 10.5708 6.44526 10.5817C6.52255 10.5927 6.60125 10.5877 6.67654 10.5671C6.75184 10.5465 6.82213 10.5108 6.88312 10.4621C7.05083 10.3425 7.11646 10.3221 7.18062 10.1062C7.19017 10.0282 7.18344 9.94905 7.16085 9.87375C7.13826 9.79844 7.1003 9.72864 7.04937 9.66875C7.03187 9.65417 7.04792 9.61042 7.06833 9.60021C8.96391 8.62371 11.0559 8.08876 13.1875 8.03542C13.9613 8.05834 14.7046 8.34259 15.2962 8.84188C15.3063 8.85641 15.3199 8.86817 15.3357 8.87608C15.3515 8.88398 15.369 8.88776 15.3867 8.88708C15.4047 8.87957 15.4209 8.86844 15.4345 8.8544C15.448 8.84035 15.4586 8.82368 15.4654 8.80542C15.5149 8.62937 15.5132 8.44288 15.4605 8.26777C15.4078 8.09267 15.3063 7.93619 15.1679 7.81667C14.9265 7.56492 14.616 7.39034 14.2754 7.315C14.2579 7.31063 14.2462 7.27271 14.2608 7.26104C14.3995 7.12119 14.5659 7.0119 14.7494 6.94021C15.0409 6.89102 15.336 6.86662 15.6317 6.86729C15.6521 6.86583 15.6827 6.84542 15.6754 6.82646C15.6176 6.6652 15.5142 6.52422 15.3778 6.42066C15.2413 6.31709 15.0777 6.25541 14.9069 6.24313C14.563 6.20024 14.214 6.25061 13.8962 6.38896C13.5681 6.56643 13.3107 6.85109 13.1671 7.19542C13.1628 7.20412 13.1561 7.21146 13.1479 7.2166C13.1396 7.22175 13.1301 7.22452 13.1204 7.22458C12.8318 7.21412 12.543 7.21071 12.2542 7.21438C12.2337 7.21438 12.2031 7.21438 12.2031 7.19396C12.2453 6.90998 12.3754 6.64634 12.575 6.44C12.8651 6.1886 13.2021 5.99726 13.5667 5.87708C13.5944 5.86833 13.625 5.82458 13.609 5.80271C13.5328 5.69752 13.4322 5.61243 13.3158 5.55479C13.1508 5.51102 12.9805 5.49089 12.8098 5.495L12.8083 5.49208ZM17.774 7.83563H30.6729C30.6554 8.83604 30.6365 9.92542 30.6146 11.0367H17.774V7.83563ZM12.7996 11.3765L22.5208 11.3808C22.5266 11.3804 22.5323 11.3821 22.5369 11.3856C22.5414 11.3891 22.5446 11.3941 22.5456 11.3998L22.5427 18.8927C22.5354 19.2731 22.4649 19.6496 22.3342 20.0069C21.9471 21.0636 21.2047 21.9529 20.2342 22.5225C19.4665 22.9813 18.5909 23.2284 17.6967 23.2385C16.4842 23.2238 15.3163 22.7794 14.4008 21.9844C13.9062 21.5714 13.5062 21.0568 13.2282 20.4755C12.9501 19.8942 12.8004 19.2599 12.7894 18.6156L12.7792 11.4042C12.7792 11.3852 12.7806 11.3765 12.7996 11.3765ZM22.9992 11.5019H30.6073C30.5898 12.4425 30.5708 13.3919 30.5577 14.3106H22.9992V12.1304V11.5019ZM13.0256 11.6054C13.0067 11.6054 13.0052 11.6127 13.0052 11.6317L13.0154 18.5631C13.0247 19.1824 13.1667 19.7925 13.4319 20.3523C13.6971 20.912 14.0792 21.4084 14.5525 21.8079C15.4222 22.5708 16.5355 22.9984 17.6923 23.014C18.5463 23.004 19.3821 22.7658 20.1131 22.3242C21.0414 21.7738 21.7497 20.9181 22.1169 19.9033C22.2413 19.5598 22.3084 19.1982 22.3152 18.8329L22.3181 11.6287C22.3179 11.6259 22.3172 11.6231 22.3159 11.6205C22.3146 11.6179 22.3129 11.6156 22.3107 11.6137C22.3085 11.6118 22.306 11.6103 22.3033 11.6094C22.3005 11.6085 22.2977 11.6081 22.2948 11.6083L13.0256 11.6054ZM19.4948 12.0488C19.4953 12.0487 19.4958 12.0487 19.4962 12.0488C19.5247 12.053 19.5516 12.0649 19.5739 12.0831C19.5962 12.1013 19.6132 12.1252 19.6231 12.1523L19.976 13.195C19.9832 13.2112 19.9865 13.2288 19.9858 13.2466C19.985 13.2643 19.9802 13.2816 19.9717 13.2971C19.9622 13.3086 19.9501 13.3178 19.9364 13.3239C19.9228 13.33 19.9079 13.3328 19.8929 13.3321C19.8728 13.3325 19.853 13.3266 19.8365 13.315C19.82 13.3035 19.8075 13.287 19.801 13.2679L19.7456 13.0856H19.2644L19.2119 13.2723C19.1973 13.3306 19.1535 13.3365 19.1083 13.3365C19.0953 13.3346 19.0829 13.33 19.0718 13.323C19.0608 13.316 19.0513 13.3066 19.0442 13.2956C19.0358 13.2851 19.0301 13.2727 19.0275 13.2595C19.025 13.2463 19.0257 13.2327 19.0296 13.2198L19.3679 12.1581C19.3754 12.1292 19.3916 12.1032 19.4143 12.0836C19.437 12.0641 19.465 12.0519 19.4948 12.0488ZM18.3821 12.059C18.3933 12.0584 18.4044 12.0584 18.4156 12.059C18.49 12.054 18.5639 12.0738 18.6259 12.1152C18.6878 12.1566 18.7344 12.2173 18.7583 12.2879C18.7612 12.2965 18.7624 12.3056 18.7617 12.3147C18.761 12.3238 18.7584 12.3326 18.7542 12.3406C18.7499 12.3487 18.7441 12.3558 18.7371 12.3615C18.73 12.3672 18.7219 12.3715 18.7131 12.374C18.6956 12.3831 18.6753 12.3851 18.6563 12.3797C18.6373 12.3743 18.6211 12.3618 18.611 12.3448C18.5926 12.3085 18.5653 12.2774 18.5316 12.2545C18.498 12.2315 18.4591 12.2175 18.4185 12.2135C18.3755 12.2162 18.3341 12.2314 18.2997 12.2573C18.2652 12.2833 18.2391 12.3187 18.2246 12.3594C18.1731 12.4596 18.1456 12.5704 18.1444 12.6831C18.1415 12.7976 18.1645 12.9112 18.2115 13.0156C18.2287 13.0607 18.2597 13.0993 18.2999 13.126C18.3402 13.1526 18.3878 13.1661 18.436 13.1644C18.511 13.1422 18.576 13.0948 18.6201 13.0302C18.6642 12.9657 18.6847 12.8879 18.6781 12.81V12.7531H18.4812C18.4693 12.7536 18.4574 12.7515 18.4464 12.747C18.4353 12.7425 18.4254 12.7356 18.4172 12.7269C18.409 12.7182 18.4028 12.7078 18.399 12.6965C18.3952 12.6851 18.3939 12.6731 18.3952 12.6613C18.3952 12.6277 18.4054 12.5883 18.4812 12.5883H18.7612C18.8546 12.5883 18.8677 12.6583 18.8677 12.7196C18.8695 12.7938 18.8641 12.868 18.8517 12.9412C18.8227 13.0786 18.745 13.2008 18.6329 13.2854C18.5668 13.3252 18.4913 13.3468 18.4142 13.3481C18.3448 13.347 18.2772 13.3266 18.2187 13.2892C18.1603 13.2519 18.1133 13.1991 18.0831 13.1367C18.0088 12.9979 17.972 12.842 17.9767 12.6846C17.9738 12.5289 18.0142 12.3754 18.0933 12.2413C18.1202 12.1874 18.1614 12.1419 18.2123 12.1098C18.2632 12.0777 18.3219 12.0601 18.3821 12.059ZM14.0246 12.0619C14.0265 12.0619 14.0285 12.0619 14.0304 12.0619C14.2973 12.0648 14.3848 12.2238 14.3848 12.2806C14.3848 12.3317 14.2958 12.3973 14.2462 12.3375C14.2178 12.3051 14.1825 12.2793 14.1429 12.2622C14.1033 12.2451 14.0604 12.2369 14.0173 12.2383C13.9704 12.2335 13.9232 12.2447 13.8835 12.2701C13.8437 12.2956 13.8138 12.3337 13.7985 12.3783C13.7941 12.4003 13.7942 12.4229 13.7988 12.4449C13.8034 12.4668 13.8123 12.4876 13.8251 12.506C13.8379 12.5244 13.8543 12.54 13.8733 12.5519C13.8923 12.5638 13.9135 12.5717 13.9356 12.5752C14.0727 12.5835 14.206 12.6235 14.325 12.6919H14.3235C14.364 12.7219 14.3962 12.7618 14.4168 12.8077C14.4375 12.8537 14.4461 12.9042 14.4417 12.9544C14.4439 13.049 14.4088 13.1406 14.344 13.2096C14.296 13.2547 14.2393 13.2893 14.1773 13.3114C14.1153 13.3335 14.0494 13.3425 13.9837 13.3379C13.9075 13.3407 13.8319 13.3233 13.7645 13.2874C13.6972 13.2516 13.6405 13.1985 13.6002 13.1337C13.5944 13.1192 13.5856 13.0419 13.6498 13.02C13.6713 13.015 13.6938 13.0158 13.7148 13.0225C13.7359 13.0292 13.7547 13.0414 13.7694 13.0579C13.8316 13.1151 13.9124 13.1478 13.9969 13.1498C14.0753 13.1523 14.1519 13.1264 14.2127 13.0769C14.2349 13.0555 14.2501 13.0279 14.2563 12.9977C14.2626 12.9675 14.2596 12.9362 14.2477 12.9077C14.2172 12.8615 14.1752 12.8241 14.1259 12.799C14.0765 12.774 14.0215 12.7622 13.9662 12.7648C13.8726 12.7642 13.7828 12.7277 13.7154 12.6627C13.6791 12.6251 13.6514 12.5801 13.634 12.5307C13.6166 12.4814 13.6101 12.4289 13.6148 12.3769C13.6195 12.3288 13.6351 12.2824 13.6604 12.2413C13.6857 12.2001 13.7199 12.1652 13.7606 12.1392C13.8388 12.0873 13.9308 12.0604 14.0246 12.0619ZM16.4294 12.0619C16.4299 12.0619 16.4303 12.0619 16.4308 12.0619C16.4337 12.0617 16.4367 12.0617 16.4396 12.0619H16.9573C16.9805 12.0619 17.0028 12.0711 17.0192 12.0875C17.0356 12.1039 17.0448 12.1262 17.0448 12.1494C17.0448 12.1726 17.0356 12.1948 17.0192 12.2112C17.0028 12.2277 16.9805 12.2369 16.9573 12.2369L16.791 12.2398V13.2344C16.7882 13.2566 16.7774 13.277 16.7606 13.2918C16.7439 13.3065 16.7223 13.3147 16.6999 13.3147C16.6775 13.3147 16.6559 13.3065 16.6391 13.2918C16.6224 13.277 16.6116 13.2566 16.6087 13.2344V12.2383H16.4396C16.4164 12.2397 16.3936 12.2318 16.3762 12.2163C16.3588 12.2009 16.3483 12.1791 16.347 12.1559C16.3456 12.1327 16.3535 12.1099 16.369 12.0926C16.3844 12.0752 16.4062 12.0647 16.4294 12.0633V12.0619ZM17.246 12.0619C17.2465 12.0619 17.247 12.0619 17.2475 12.0619C17.2504 12.0617 17.2533 12.0617 17.2562 12.0619H17.7725C17.7957 12.0619 17.818 12.0711 17.8344 12.0875C17.8508 12.1039 17.86 12.1262 17.86 12.1494C17.86 12.1726 17.8508 12.1948 17.8344 12.2112C17.818 12.2277 17.7957 12.2369 17.7725 12.2369L17.6062 12.2398V13.2344C17.6034 13.2566 17.5926 13.277 17.5758 13.2918C17.5591 13.3065 17.5375 13.3147 17.5151 13.3147C17.4927 13.3147 17.4711 13.3065 17.4544 13.2918C17.4376 13.277 17.4268 13.2566 17.424 13.2344V12.2383H17.2562C17.233 12.2397 17.2102 12.2318 17.1929 12.2163C17.1755 12.2009 17.165 12.1791 17.1636 12.1559C17.1623 12.1327 17.1702 12.1099 17.1857 12.0926C17.2011 12.0752 17.2228 12.0647 17.246 12.0633V12.0619ZM21.2419 12.0619C21.2428 12.0619 21.2438 12.0619 21.2448 12.0619C21.2477 12.0617 21.2506 12.0617 21.2535 12.0619H21.7683C21.7915 12.0619 21.8138 12.0711 21.8302 12.0875C21.8466 12.1039 21.8558 12.1262 21.8558 12.1494C21.8558 12.1726 21.8466 12.1948 21.8302 12.2112C21.8138 12.2277 21.7915 12.2369 21.7683 12.2369L21.605 12.2398V13.2344C21.6022 13.2566 21.5914 13.277 21.5746 13.2918C21.5578 13.3065 21.5362 13.3147 21.5139 13.3147C21.4915 13.3147 21.4699 13.3065 21.4531 13.2918C21.4363 13.277 21.4255 13.2566 21.4227 13.2344V12.2383H21.2535C21.2303 12.2397 21.2075 12.2318 21.1902 12.2163C21.1728 12.2009 21.1623 12.1791 21.1609 12.1559C21.1596 12.1327 21.1675 12.1099 21.183 12.0926C21.1984 12.0752 21.2201 12.0647 21.2433 12.0633L21.2419 12.0619ZM20.2546 12.0677C20.2604 12.0672 20.2663 12.0672 20.2721 12.0677H20.5492C20.6565 12.0646 20.7623 12.0941 20.8525 12.1523C20.8989 12.188 20.937 12.2334 20.9642 12.2852C20.9914 12.3371 21.007 12.3942 21.01 12.4527C21.0164 12.5056 21.0103 12.5592 20.9923 12.6093C20.9744 12.6594 20.945 12.7047 20.9065 12.7415C20.8588 12.7906 20.8004 12.828 20.7358 12.8508L20.7067 12.861L20.9371 13.1527C20.9578 13.175 20.9697 13.204 20.9706 13.2344C20.9677 13.281 20.9371 13.3073 20.8831 13.3073C20.8673 13.3079 20.8516 13.3047 20.8374 13.2978C20.8231 13.291 20.8108 13.2807 20.8015 13.2679L20.5287 12.8917H20.3581V13.2271C20.3599 13.2398 20.3588 13.2528 20.3549 13.2651C20.351 13.2773 20.3444 13.2886 20.3356 13.2979C20.3268 13.3073 20.316 13.3146 20.304 13.3192C20.292 13.3239 20.2791 13.3258 20.2662 13.3248C20.2536 13.3253 20.241 13.3231 20.2293 13.3182C20.2176 13.3134 20.2071 13.3061 20.1985 13.2968C20.1899 13.2875 20.1834 13.2765 20.1795 13.2644C20.1756 13.2524 20.1743 13.2397 20.1758 13.2271V12.1683C20.1743 12.142 20.1826 12.116 20.1992 12.0954C20.2139 12.08 20.2335 12.0702 20.2546 12.0677ZM14.6108 12.0706C14.6123 12.0706 14.6137 12.0706 14.6152 12.0706H15.1358C15.1592 12.0706 15.1817 12.0799 15.1982 12.0965C15.2148 12.113 15.2241 12.1355 15.2241 12.1589C15.2241 12.1823 15.2148 12.2047 15.1982 12.2212C15.1817 12.2378 15.1592 12.2471 15.1358 12.2471H14.9667V13.2446C14.9639 13.2668 14.953 13.2872 14.9363 13.302C14.9195 13.3167 14.8979 13.3249 14.8755 13.3249C14.8532 13.3249 14.8316 13.3167 14.8148 13.302C14.798 13.2872 14.7872 13.2668 14.7844 13.2446V12.2471H14.6152C14.592 12.2477 14.5695 12.239 14.5527 12.223C14.5359 12.207 14.5261 12.185 14.5255 12.1618C14.5249 12.1386 14.5336 12.1161 14.5496 12.0993C14.5656 12.0824 14.5876 12.0727 14.6108 12.0721V12.0706ZM15.461 12.0706C15.462 12.0706 15.463 12.0706 15.464 12.0706C15.4764 12.0702 15.4888 12.0724 15.5004 12.0769C15.5119 12.0814 15.5225 12.0883 15.5313 12.097C15.5402 12.1057 15.5472 12.1161 15.5519 12.1277C15.5566 12.1392 15.559 12.1515 15.5587 12.164V12.8508C15.5537 12.928 15.5725 13.0049 15.6127 13.071C15.6344 13.099 15.6627 13.121 15.695 13.1353C15.7273 13.1495 15.7627 13.1555 15.7979 13.1527C15.8328 13.1561 15.8679 13.1504 15.8999 13.1361C15.9319 13.1218 15.9596 13.0993 15.9802 13.071C16.0185 13.0048 16.0363 12.9287 16.0312 12.8523V12.1625H16.0327C16.0355 12.1403 16.0463 12.1199 16.0631 12.1051C16.0799 12.0903 16.1015 12.0822 16.1239 12.0822C16.1462 12.0822 16.1678 12.0903 16.1846 12.1051C16.2014 12.1199 16.2122 12.1403 16.215 12.1625V12.7925C16.2251 12.9251 16.1967 13.0577 16.1333 13.1746C16.0962 13.2269 16.0458 13.2685 15.9875 13.2951C15.9291 13.3217 15.8647 13.3325 15.8008 13.3263C15.7366 13.3315 15.6722 13.3204 15.6135 13.2939C15.5548 13.2673 15.5038 13.2263 15.4654 13.1746C15.398 13.0591 15.367 12.9259 15.3765 12.7925V12.1625C15.3764 12.1393 15.3851 12.117 15.4007 12.1C15.4164 12.0829 15.438 12.0725 15.461 12.0706ZM20.3523 12.2383V12.7167H20.5419C20.578 12.7207 20.6146 12.7172 20.6492 12.7064C20.6839 12.6956 20.716 12.6777 20.7434 12.6538C20.7709 12.63 20.793 12.6007 20.8085 12.5678C20.824 12.535 20.8326 12.4992 20.8335 12.4629C20.8328 12.4327 20.8258 12.403 20.813 12.3757C20.8002 12.3483 20.7819 12.3239 20.7592 12.304C20.7335 12.281 20.7035 12.2634 20.671 12.2521C20.6384 12.2408 20.604 12.2361 20.5696 12.2383H20.3523ZM19.5006 12.2602L19.3023 12.9442H19.7077L19.5006 12.2602ZM17.8381 13.7258C17.8542 13.7258 17.8687 13.7288 17.8702 13.7419C17.8731 13.7681 17.8469 13.7842 17.809 13.8031C17.7524 13.8271 17.7046 13.8678 17.6719 13.9198C17.6314 13.9923 17.6118 14.0745 17.615 14.1575C17.6205 14.1824 17.6317 14.2058 17.6476 14.2257C17.6635 14.2457 17.6838 14.2618 17.7069 14.2727C17.7715 14.3031 17.8426 14.3172 17.914 14.3135C18.0241 14.3069 18.1312 14.2755 18.2275 14.2217C18.3574 14.1797 18.4954 14.1697 18.63 14.1925C18.7315 14.1935 18.8302 14.2256 18.9129 14.2844C18.9479 14.3092 18.9421 14.3398 18.929 14.3427C18.9085 14.35 18.8867 14.3252 18.8648 14.3281C18.7944 14.3352 18.725 14.3499 18.6577 14.3719C18.5702 14.4113 18.5308 14.4258 18.4885 14.5031C18.4716 14.536 18.468 14.5741 18.4783 14.6096C18.4929 14.6446 18.5294 14.6679 18.5367 14.6927C18.558 14.758 18.5895 14.8195 18.63 14.875C18.6435 14.8875 18.6582 14.8987 18.6737 14.9085C18.8189 15.0169 18.9563 15.1354 19.085 15.2629C19.1131 15.3039 19.133 15.3499 19.1433 15.3985C19.1477 15.416 19.1331 15.4423 19.1171 15.435C19.0983 15.4225 19.0808 15.4084 19.0646 15.3927C19.0426 15.3691 19.0164 15.3498 18.9873 15.3358C18.906 15.3029 18.8179 15.2904 18.7306 15.2994C18.6912 15.2994 18.6125 15.3344 18.6577 15.3519C18.735 15.3913 18.8011 15.4495 18.8502 15.521C18.9599 15.6452 19.016 15.8077 19.0062 15.9731C19.0062 15.9819 18.9887 15.9877 18.9844 15.9819C18.9465 15.9191 18.8958 15.8649 18.8356 15.8229C18.7471 15.7582 18.6389 15.7262 18.5294 15.7325C18.5075 15.734 18.4419 15.7325 18.4492 15.7529C18.5177 15.8398 18.5778 15.9331 18.6285 16.0315C18.681 16.1587 18.7006 16.2971 18.6854 16.434C18.684 16.4412 18.6562 16.4485 18.6519 16.4412C18.6178 16.4011 18.5802 16.364 18.5396 16.3304C18.4989 16.2941 18.4526 16.2645 18.4025 16.2429C18.3017 16.2197 18.1958 16.2342 18.105 16.2838C18.0245 16.3282 17.9586 16.3951 17.9154 16.4763C17.8637 16.5681 17.8328 16.6701 17.825 16.7752C17.8089 16.9034 17.8302 17.0336 17.8862 17.15C17.9477 17.2597 18.0458 17.3444 18.1633 17.3892C18.3206 17.4393 18.4855 17.461 18.6504 17.4533C18.8531 17.4606 19.0558 17.43 19.2585 17.4242C19.4507 17.406 19.6442 17.4074 19.836 17.4285C19.9914 17.4594 20.1398 17.5187 20.2735 17.6035C20.3827 17.6868 20.4874 17.7759 20.5871 17.8704C20.5987 17.8792 20.625 17.866 20.6381 17.8573C20.7339 17.7653 20.8004 17.6471 20.8292 17.5175C20.8481 17.3919 20.8189 17.2638 20.7475 17.1588C20.679 17.0348 20.5783 16.8963 20.4996 16.765C20.3928 16.6272 20.2944 16.483 20.205 16.3333C20.1566 16.2328 20.1478 16.1178 20.1802 16.011C20.208 15.932 20.2634 15.8657 20.3362 15.8244C20.3523 15.8142 20.3683 15.8331 20.361 15.855C20.3402 15.9069 20.3361 15.964 20.3494 16.0183C20.3739 16.0966 20.4187 16.167 20.4792 16.2225C20.4981 16.2371 20.5477 16.2152 20.5594 16.1919C20.5856 16.1292 20.5696 16.0315 20.5929 15.9673C20.6224 15.8478 20.676 15.7357 20.7504 15.6377C20.9112 15.5184 21.0879 15.4222 21.2754 15.3519C21.3235 15.3242 21.3542 15.1988 21.4081 15.2192C21.4621 15.2381 21.4329 15.365 21.3921 15.4263C21.3337 15.5167 21.2652 15.5721 21.201 15.6538C21.1134 15.7663 21.0368 15.8869 20.9721 16.014C20.9368 16.0742 20.922 16.1443 20.9298 16.2138C20.9364 16.243 20.9493 16.2705 20.9677 16.2942C20.9861 16.3179 21.0095 16.3372 21.0362 16.3508C21.0683 16.3654 21.1092 16.3363 21.1383 16.3144C21.1944 16.2735 21.2423 16.2225 21.2798 16.1642C21.3133 16.1087 21.2944 16.0344 21.3265 15.9775C21.3352 15.9644 21.3702 15.9673 21.3804 15.9775C21.4155 16.0096 21.4382 16.0529 21.4446 16.1C21.4477 16.1553 21.4428 16.2109 21.43 16.2648C21.4256 16.2765 21.395 16.3042 21.3848 16.3304C21.3769 16.3507 21.3671 16.3702 21.3556 16.3888C21.3031 16.4806 21.2419 16.5579 21.1733 16.5725C21.1587 16.574 21.1485 16.6031 21.1587 16.6163C21.1985 16.692 21.2549 16.7578 21.3235 16.8088C21.3577 16.8257 21.3949 16.8357 21.4329 16.8382C21.471 16.8407 21.5091 16.8357 21.5452 16.8233C21.5846 16.8117 21.6152 16.784 21.6604 16.7694C21.6794 16.7635 21.6677 16.7752 21.6677 16.7942C21.6673 16.8369 21.6599 16.8792 21.6458 16.9196C21.6223 16.97 21.5842 17.0122 21.5365 17.0406C21.4622 17.0826 21.3795 17.1075 21.2944 17.1135C21.255 17.1208 21.1952 17.15 21.2098 17.1879C21.2223 17.2327 21.2431 17.2747 21.271 17.3119C21.3014 17.3448 21.343 17.3652 21.3877 17.3687C21.4526 17.3715 21.5165 17.3531 21.57 17.3162C21.6283 17.2783 21.659 17.2083 21.71 17.1588C21.7202 17.15 21.7479 17.1588 21.7479 17.1733C21.7459 17.2537 21.7254 17.3325 21.6881 17.4038C21.6393 17.4821 21.5759 17.5504 21.5015 17.605C21.4796 17.624 21.4533 17.6473 21.4533 17.6765C21.4646 17.7218 21.4866 17.7639 21.5175 17.799C21.5463 17.8397 21.5896 17.8679 21.6385 17.8777C21.6867 17.8868 21.7362 17.8868 21.7844 17.8777C21.8033 17.8777 21.799 17.9113 21.7829 17.9229C21.7361 17.9709 21.6771 18.0051 21.6123 18.0221C21.5521 18.0421 21.4878 18.0462 21.4256 18.0338C21.3075 18.0046 21.2302 17.9608 21.1135 17.9273C21.0507 17.9033 20.9821 17.8987 20.9167 17.9142C20.8541 17.938 20.8002 17.9802 20.7621 18.0352C20.7393 18.0618 20.7242 18.0941 20.7183 18.1285C20.7096 18.2204 20.7548 18.3181 20.7256 18.4085C20.6963 18.5255 20.6568 18.6397 20.6075 18.7498C20.5578 18.8342 20.5018 18.9146 20.4398 18.9904C20.3815 19.0692 20.3042 19.0983 20.2648 19.1844C20.2481 19.216 20.2296 19.2467 20.2094 19.2763C20.1557 19.3795 20.1267 19.4938 20.1248 19.6102C20.1397 19.7206 20.1823 19.8255 20.2487 19.915L20.4719 20.2606C20.4877 20.2989 20.4922 20.3409 20.485 20.3817C20.4835 20.4026 20.4768 20.4229 20.4657 20.4407C20.4545 20.4585 20.4391 20.4733 20.4208 20.4837C20.1247 20.6504 19.9054 20.9262 19.8098 21.2523L19.8069 21.2713V21.2771C19.8014 21.2995 19.7909 21.3205 19.7762 21.3383C19.7016 21.414 19.6043 21.4631 19.4992 21.4783C19.419 21.5002 19.3387 21.5206 19.2585 21.5454C19.2324 21.5523 19.2096 21.5683 19.1944 21.5906C19.1807 21.6124 19.1745 21.638 19.1769 21.6636C19.1793 21.6892 19.19 21.7132 19.2075 21.7321C19.2317 21.7617 19.2469 21.7976 19.2512 21.8356C19.2525 21.8577 19.2458 21.8794 19.2323 21.8969C19.2205 21.9098 19.2067 21.9206 19.1915 21.929C19.0927 21.9853 18.9867 22.0279 18.8765 22.0558C18.8035 22.0719 18.751 22.0529 18.7744 21.9698C18.8148 21.8251 18.8625 21.6824 18.9173 21.5425C18.9652 21.4603 19.0316 21.3904 19.1112 21.3383C19.2096 21.2536 19.3129 21.1748 19.4204 21.1021C19.4907 21.0539 19.5498 20.9912 19.594 20.9183C19.6795 20.7801 19.772 20.6462 19.871 20.5173C19.8908 20.4906 19.9048 20.4601 19.9121 20.4277C19.9194 20.3953 19.9198 20.3617 19.9133 20.3292C19.9038 20.2706 19.8799 20.2153 19.8438 20.1682C19.8077 20.1211 19.7604 20.0837 19.7062 20.0594C19.6657 20.0411 19.6243 20.0245 19.5823 20.0098C19.4406 19.961 19.3161 19.8724 19.2235 19.7546C19.2134 19.739 19.2002 19.7258 19.1846 19.7157C19.169 19.7057 19.1515 19.699 19.1331 19.6962C19.0412 19.6992 19.015 19.8275 19.0121 19.8975C19.0047 20.0005 19.0066 20.104 19.0179 20.2067C19.0269 20.2409 19.0289 20.2766 19.0237 20.3117C19.0191 20.324 19.0114 20.3349 19.0015 20.3436C18.9916 20.3522 18.9797 20.3583 18.9669 20.3612C18.6775 20.4647 18.401 20.6013 18.1429 20.7681C18.1058 20.7958 18.0746 20.8304 18.051 20.8702L18.0262 20.9125C17.9939 20.9665 17.9438 21.0076 17.8845 21.0289C17.8252 21.0502 17.7604 21.0503 17.701 21.0292C17.6799 21.0229 17.6585 21.0175 17.6369 21.0131C17.6038 21.0098 17.5706 21.0186 17.5435 21.0379C17.5208 21.0519 17.5006 21.0697 17.4837 21.0904C17.4773 21.0987 17.4723 21.1081 17.4692 21.1181V21.1269C17.4689 21.1308 17.4689 21.1347 17.4692 21.1385C17.4701 21.147 17.472 21.1553 17.475 21.1633L17.5071 21.2508C17.5143 21.2634 17.5186 21.2774 17.5196 21.2918C17.5207 21.3063 17.5184 21.3207 17.5131 21.3342C17.5078 21.3476 17.4995 21.3597 17.4889 21.3695C17.4782 21.3793 17.4655 21.3866 17.4517 21.3908C17.3565 21.4293 17.2572 21.4562 17.1556 21.471C17.0973 21.4783 17.0462 21.4565 17.0608 21.3879C17.0818 21.2692 17.116 21.1533 17.1629 21.0423C17.1692 21.0223 17.1799 21.0041 17.1943 20.9889C17.2087 20.9737 17.2264 20.9621 17.246 20.9548C17.3424 20.8997 17.4304 20.8309 17.5071 20.7506C17.5739 20.6869 17.6613 20.6492 17.7535 20.6442C17.892 20.6321 18.0243 20.5816 18.1356 20.4983C18.2524 20.4173 18.3622 20.3266 18.4637 20.2271C18.5382 20.1307 18.5779 20.0119 18.5763 19.8901C18.5747 19.7683 18.532 19.6507 18.455 19.5562L18.4258 19.5052C18.3981 19.4615 18.3821 19.3988 18.3587 19.3535C18.3282 19.3081 18.3087 19.2562 18.3019 19.2019C18.3019 19.1027 18.3412 19.0079 18.3471 18.9088C18.3478 18.9009 18.346 18.8931 18.3417 18.8865C18.3375 18.8799 18.3312 18.8749 18.3237 18.8723C18.2596 18.8482 18.1923 18.8334 18.124 18.8285C17.8528 18.86 17.5791 18.8629 17.3073 18.8373C17.1055 18.7791 16.9137 18.6906 16.7385 18.5748C16.6612 18.5267 16.6146 18.4727 16.5358 18.4275C16.5154 18.4158 16.514 18.4202 16.495 18.4363C16.3016 18.5766 16.0635 18.6414 15.8256 18.6185H15.8227C15.6768 18.5935 15.5334 18.5559 15.394 18.5063C15.2875 18.4669 15.1169 18.3983 15.0148 18.4844C14.9725 18.5208 14.9827 18.5719 14.9827 18.62C14.9961 18.7683 14.9912 18.9177 14.9681 19.0648C14.9654 19.0724 14.9644 19.0805 14.9651 19.0886C14.9659 19.0967 14.9684 19.1045 14.9725 19.1115C14.9751 19.1147 14.9781 19.1176 14.9812 19.1202C14.9972 19.1325 15.0149 19.1424 15.0337 19.1494L15.0483 19.1552C15.0892 19.1698 15.0965 19.1888 15.1212 19.2398C15.1339 19.2684 15.1418 19.299 15.1446 19.3302C15.1491 19.3603 15.1476 19.3911 15.1402 19.4206C15.1365 19.4397 15.1322 19.4587 15.1271 19.4775C15.1088 19.5426 15.1129 19.6119 15.1387 19.6744C15.151 19.7057 15.1723 19.7326 15.2 19.7517C15.2047 19.754 15.2096 19.7559 15.2146 19.7575C15.2193 19.7594 15.2242 19.7608 15.2292 19.7619C15.234 19.7622 15.2389 19.7622 15.2437 19.7619H15.2583C15.2686 19.7594 15.2784 19.7555 15.2875 19.7502L15.2933 19.7473C15.3075 19.7351 15.3257 19.7289 15.3444 19.7298C15.3494 19.7307 15.3543 19.7322 15.359 19.7342C15.384 19.7396 15.4066 19.7531 15.4232 19.7726C15.4398 19.7921 15.4495 19.8165 15.4508 19.8421C15.4542 19.9533 15.4312 20.0637 15.3837 20.1644C15.3793 20.1747 15.3729 20.184 15.3648 20.1918C15.3567 20.1996 15.3472 20.2057 15.3368 20.2098C15.3263 20.2138 15.3152 20.2158 15.3039 20.2155C15.2927 20.2152 15.2817 20.2127 15.2715 20.2081L15.2452 20.1979C15.1661 20.1558 15.0966 20.0977 15.041 20.0273C14.9999 19.9822 14.9748 19.9248 14.9696 19.864C14.9713 19.8204 14.9568 19.7778 14.9287 19.7444C14.9149 19.7336 14.899 19.7256 14.8821 19.721C14.8422 19.7093 14.8066 19.6859 14.78 19.654C14.745 19.6094 14.72 19.5578 14.7069 19.5026C14.6938 19.4475 14.6929 19.3901 14.7042 19.3346C14.7494 19.0223 14.7265 18.7039 14.6371 18.4013C14.6183 18.3502 14.6194 18.294 14.64 18.2438L14.6633 18.181C14.6663 18.1731 14.6697 18.1653 14.6735 18.1577C14.6795 18.1458 14.6881 18.1354 14.6988 18.1273C14.7094 18.1192 14.7217 18.1136 14.7348 18.111C14.7487 18.1084 14.7629 18.1069 14.7771 18.1067C14.9997 18.1059 15.221 18.0715 15.4333 18.0046C15.4621 17.9935 15.4929 17.9885 15.5237 17.99C15.5592 17.9924 15.5947 17.9934 15.6302 17.9929C15.674 17.9929 15.7177 17.9535 15.6652 17.92C15.6214 17.8807 15.5805 17.8383 15.5427 17.7931C15.5354 17.7801 15.524 17.7699 15.5103 17.7641C15.4966 17.7583 15.4813 17.7572 15.4669 17.761C15.4618 17.7631 15.457 17.7655 15.4523 17.7683L15.4392 17.7756C15.4228 17.79 15.4034 17.8005 15.3824 17.8062C15.3614 17.8119 15.3394 17.8128 15.318 17.8087C15.2966 17.8046 15.2764 17.7957 15.259 17.7826C15.2416 17.7696 15.2274 17.7527 15.2175 17.7333C15.1622 17.6413 15.1196 17.5422 15.0906 17.4388C15.0661 17.312 15.0116 17.193 14.9317 17.0917C14.8951 17.0569 14.8513 17.0306 14.8034 17.0148C14.7555 16.9989 14.7047 16.9938 14.6546 16.9998C14.5752 17.0209 14.5071 17.0722 14.465 17.1427L14.3731 17.271C14.3498 17.2991 14.3342 17.3328 14.3279 17.3687C14.3273 17.3765 14.3273 17.3843 14.3279 17.3921C14.33 17.408 14.3339 17.4237 14.3396 17.4388C14.3555 17.4773 14.3586 17.52 14.3484 17.5605C14.3381 17.6009 14.3151 17.637 14.2827 17.6633L14.1456 17.7727C14.1329 17.7837 14.1225 17.7971 14.115 17.8121C14.1075 17.8271 14.103 17.8435 14.1019 17.8602C14.0977 17.8897 14.0919 17.9189 14.0844 17.9477C14.0791 17.9692 14.0776 17.9914 14.08 18.0133C14.0806 18.0192 14.0815 18.0251 14.0829 18.0308C14.0914 18.0546 14.1072 18.0751 14.1281 18.0892C14.1348 18.0946 14.1411 18.1005 14.1471 18.1067C14.1541 18.1141 14.1599 18.1224 14.1646 18.1315C14.1729 18.1481 14.1757 18.167 14.1726 18.1854C14.1694 18.2037 14.1605 18.2206 14.1471 18.2335C14.1362 18.2446 14.1245 18.2548 14.1121 18.2642C14.0279 18.3299 13.9345 18.3829 13.835 18.4217C13.8228 18.4263 13.8101 18.4292 13.7971 18.4304C13.7417 18.4348 13.7242 18.3925 13.7212 18.3429C13.7169 18.2788 13.7169 18.2131 13.7169 18.1475C13.7189 18.0729 13.7486 18.0017 13.8 17.9477C13.8709 17.8533 13.9079 17.7377 13.905 17.6196C13.9013 17.5515 13.922 17.4843 13.9633 17.43C13.9985 17.3915 14.0267 17.347 14.0465 17.2988C14.0605 17.264 14.0797 17.2316 14.1033 17.2025C14.2513 17.0244 14.3882 16.8374 14.5131 16.6425C14.5919 16.5171 14.7392 16.3625 14.8587 16.536C14.8898 16.5827 14.9282 16.6241 14.9725 16.6585C15.0932 16.7462 15.2193 16.8261 15.3502 16.8977C15.4873 16.975 15.5092 16.8365 15.5325 16.7213V16.7169C15.5441 16.6696 15.5628 16.6244 15.5879 16.5827C15.6704 16.4506 15.7694 16.3296 15.8825 16.2225C15.9452 16.1671 16.0356 16.1117 16.1012 16.0577C16.1275 16.0344 16.1348 16.0315 16.145 15.9994C16.1581 15.9673 16.18 15.9265 16.1946 15.8856C16.2092 15.8462 16.2165 15.8054 16.2296 15.7748C16.2583 15.7308 16.28 15.6826 16.2937 15.6319V15.6275C16.294 15.6251 16.294 15.6226 16.2937 15.6202V15.61L16.2894 15.5998C16.2833 15.5851 16.2725 15.5728 16.2587 15.5648C16.2141 15.5376 16.1623 15.5244 16.11 15.5269H16.1056C16.0314 15.5275 15.958 15.5429 15.8898 15.5721C15.8547 15.5876 15.8266 15.6157 15.811 15.6508C15.7959 15.6847 15.7752 15.7157 15.7498 15.7427C15.7247 15.7671 15.6916 15.7815 15.6567 15.7831C15.6217 15.7847 15.5874 15.7735 15.5602 15.7515C15.5252 15.7281 15.5398 15.6888 15.5602 15.6596C15.579 15.6366 15.5961 15.6122 15.6112 15.5867C15.6174 15.5756 15.6199 15.5628 15.6185 15.5502V15.5444L15.6156 15.5371C15.6136 15.5339 15.6111 15.5309 15.6083 15.5283C15.5992 15.5211 15.5884 15.5163 15.5769 15.5145C15.5654 15.5127 15.5536 15.514 15.5427 15.5181C15.5018 15.5294 15.4614 15.5426 15.4217 15.5575C15.4084 15.5647 15.3937 15.5686 15.3786 15.5689C15.3636 15.5692 15.3487 15.5658 15.3352 15.5591C15.3217 15.5523 15.3101 15.5424 15.3013 15.5302C15.2925 15.518 15.2867 15.5039 15.2846 15.489C15.2789 15.4626 15.2774 15.4355 15.2802 15.4088C15.2811 15.392 15.2872 15.376 15.2977 15.3629C15.3081 15.3499 15.3224 15.3404 15.3385 15.3358C15.3677 15.3271 15.4115 15.311 15.4056 15.2746C15.404 15.2635 15.404 15.2522 15.4056 15.241C15.4083 15.228 15.4143 15.216 15.4231 15.206C15.4359 15.1919 15.4507 15.1796 15.4669 15.1696C15.6282 15.0639 15.7839 14.95 15.9335 14.8283C15.9448 14.8152 15.9604 14.8066 15.9775 14.8039C15.9946 14.8012 16.0121 14.8047 16.0269 14.8138L16.0415 14.8225C16.1092 14.8578 16.1871 14.8681 16.2617 14.8517C16.2748 14.8511 16.2875 14.8466 16.2981 14.8388C16.3088 14.831 16.3169 14.8203 16.3215 14.8079C16.3217 14.8055 16.3217 14.8031 16.3215 14.8006V14.7933L16.3185 14.7846L16.3142 14.7788C16.3005 14.7638 16.2828 14.7531 16.2631 14.7481L16.1785 14.7175C16.152 14.7081 16.1266 14.6959 16.1027 14.681C16.0881 14.6726 16.0766 14.6597 16.07 14.6442C16.0634 14.6286 16.0621 14.6114 16.0662 14.595C16.0998 14.4302 16.2806 14.4288 16.4177 14.4419H16.4235C16.4928 14.4408 16.5615 14.43 16.6277 14.4098C16.7152 14.3792 16.7823 14.3121 16.8654 14.2727C16.9485 14.2333 17.036 14.1896 17.1221 14.156C17.1483 14.1473 17.1702 14.1531 17.1935 14.1429C17.2132 14.135 17.2307 14.1225 17.2446 14.1065C17.3045 14.0197 17.374 13.94 17.4517 13.8688C17.5588 13.8065 17.6749 13.7613 17.7958 13.7346C17.8099 13.7296 17.8247 13.7266 17.8396 13.7258H17.8381ZM17.2183 14.5381C17.1649 14.5378 17.1123 14.5508 17.0652 14.576C17.0521 14.5833 17.0433 14.5994 17.0535 14.611C17.0798 14.6417 17.125 14.6548 17.1556 14.684C17.1766 14.703 17.1939 14.7258 17.2067 14.751C17.2198 14.7788 17.2417 14.8094 17.2548 14.8385C17.2797 14.8972 17.3016 14.9571 17.3204 15.0179C17.3536 15.1172 17.378 15.2192 17.3933 15.3227C17.4079 15.4058 17.4035 15.4933 17.4079 15.5779V15.696C17.4065 15.7296 17.4065 15.7646 17.4035 15.7981C17.3996 15.8457 17.3976 15.8933 17.3977 15.941V16.0577C17.4006 16.1598 17.4167 16.2327 17.4619 16.2327C17.5043 16.2335 17.5464 16.224 17.5844 16.205C17.6217 16.1826 17.6528 16.151 17.6744 16.1132C17.6961 16.0754 17.7078 16.0327 17.7083 15.9892C17.7469 15.7104 17.7454 15.4275 17.704 15.1492C17.697 15.047 17.6691 14.9474 17.622 14.8566C17.5748 14.7658 17.5094 14.6856 17.4298 14.6213C17.3723 14.5689 17.2976 14.5393 17.2198 14.5381H17.2183ZM22.9933 14.7729H30.5431C30.5183 15.976 30.4935 17.1063 30.4702 18.0731H22.989L22.9948 15.3577L22.9933 14.7729ZM22.9846 18.4829H30.4556C30.4096 19.9303 30.1416 21.3621 29.6608 22.7281C29.0882 24.3298 28.3244 25.8566 27.3858 27.2752C26.4066 28.7364 25.2203 30.0475 23.864 31.1675C23.3342 31.6161 22.7754 32.0292 22.1912 32.4042C21.2765 32.961 20.321 33.448 19.3329 33.861C19.0062 34.001 18.7233 34.1323 18.4637 34.2212C18.1823 34.316 17.9417 34.4035 17.7725 34.4487V34.281L17.7769 23.6425C17.9309 23.6382 18.0847 23.627 18.2377 23.609C18.245 23.6308 18.261 23.6921 18.2829 23.7548C18.3159 23.8155 18.3614 23.8686 18.4165 23.9103C18.4715 23.9521 18.5349 23.9816 18.6023 23.9969C18.6838 24.0134 18.7683 24.0077 18.8469 23.9802C18.9254 23.9527 18.9951 23.9046 19.0485 23.8408C19.1244 23.9083 19.2175 23.9532 19.3175 23.9704C19.4175 23.9877 19.5203 23.9767 19.6144 23.9385C19.6875 23.9192 19.7521 23.8763 19.7983 23.8164C19.8444 23.7566 19.8695 23.6831 19.8696 23.6075C19.8789 23.504 19.8624 23.3997 19.8215 23.3042L19.769 23.2079C20.1512 23.0485 20.515 22.848 20.854 22.61L20.8831 22.6013C21.4271 22.4642 23.6131 21.681 24.9533 21.6635C25.7801 21.6448 26.5976 21.8408 27.326 22.2323C27.6988 22.4501 28.0345 22.7257 28.3206 23.049C28.3294 23.0621 28.3396 23.0898 28.3746 23.0956C28.3851 23.0959 28.3955 23.0929 28.4043 23.0872C28.4132 23.0815 28.4201 23.0732 28.4242 23.0635C28.5203 22.825 28.5597 22.5674 28.5394 22.311C28.5102 21.8998 28.1019 21.6023 27.9808 21.4798C27.9765 21.4754 27.9662 21.4492 28.01 21.42C28.0568 21.3737 28.1081 21.3321 28.1631 21.296C28.3974 21.11 28.6839 21.0019 28.9827 20.9869C29.0265 20.9913 29.0119 20.9285 29.0002 20.876C28.9156 20.5115 28.395 20.2752 27.8481 20.3598C27.6663 20.3971 27.4937 20.47 27.3403 20.5744C27.1868 20.6788 27.0556 20.8125 26.9542 20.9679C26.944 20.984 26.8929 21.0073 26.8725 20.9869C26.6967 20.9231 26.517 20.871 26.3344 20.8308C26.2687 20.8163 26.3037 20.7667 26.3067 20.7579C26.415 20.5624 26.5666 20.3943 26.75 20.2665C26.9599 20.1004 27.2072 19.9883 27.4704 19.9398C27.5025 19.9398 27.5025 19.896 27.4937 19.8815C27.442 19.7714 27.3658 19.6745 27.2711 19.5982C27.1763 19.5219 27.0655 19.4682 26.9469 19.441C26.755 19.3794 26.551 19.3657 26.3527 19.4013C26.1543 19.4369 25.9678 19.5207 25.8094 19.6452C25.5012 19.9014 25.2755 20.2428 25.1604 20.6267C25.14 20.6558 25.1342 20.6792 25.1079 20.6733C24.9635 20.6442 24.6048 20.6631 24.5727 20.6413C24.5508 20.631 24.5552 20.5975 24.5596 20.5756C24.6205 20.3672 24.7317 20.1769 24.8833 20.0215C25.02 19.8376 25.2032 19.6937 25.4142 19.6044C25.4268 19.5986 25.4377 19.5896 25.4458 19.5783C25.4539 19.567 25.459 19.5538 25.4604 19.54C25.4619 19.5262 25.4598 19.5122 25.4542 19.4994C25.4486 19.4867 25.4399 19.4756 25.4287 19.4673C25.1338 19.3145 24.7949 19.2692 24.4702 19.3392C24.1455 19.4092 23.8554 19.5901 23.6496 19.8508C23.4439 20.1608 23.2938 20.5043 23.2062 20.8658C23.2033 20.879 23.1815 20.9183 23.1537 20.9183L22.4129 21.0817L22.2919 21.1094L22.2598 21.1429C22.7109 20.4195 22.9611 19.5889 22.9846 18.7367V18.4829ZM4.82833 18.6069H12.3971V18.7381C12.411 19.874 12.846 20.9642 13.6177 21.7977H5.32562C5.03861 20.7565 4.87128 19.686 4.82687 18.6069H4.82833ZM5.43354 22.1696H13.9837C14.0368 22.2198 14.0912 22.2684 14.1471 22.3154C15.0422 23.067 16.1472 23.5243 17.3117 23.625V25.3896H6.7825C6.32981 24.5308 5.9399 23.6403 5.61583 22.7252C5.55152 22.5417 5.49075 22.3569 5.43354 22.171V22.1696ZM20.8685 22.5925L20.854 22.61H20.851L20.8481 22.6071C20.8554 22.6022 20.8627 22.5974 20.87 22.5925H20.8685ZM23.4031 22.8623C23.1397 22.8627 22.8823 22.9414 22.6637 23.0883C22.4158 23.2236 22.216 23.4325 22.0921 23.6863C21.9522 24.0483 21.8676 24.4293 21.8412 24.8165C21.8361 24.8284 21.8286 24.8391 21.819 24.8479C21.8095 24.8567 21.7982 24.8634 21.7858 24.8675C21.6206 24.9 21.4575 24.9424 21.2973 24.9944C21.2893 24.9937 21.2818 24.9905 21.2758 24.9852C21.2698 24.98 21.2656 24.973 21.2637 24.9652C21.2122 24.5972 21.2895 24.2226 21.4825 23.905C21.5626 23.7577 21.6706 23.6275 21.8004 23.5215C21.8099 23.5154 21.8172 23.5064 21.8214 23.4959C21.8256 23.4855 21.8263 23.4739 21.8236 23.463C21.8208 23.452 21.8147 23.4422 21.8061 23.4349C21.7975 23.4276 21.7869 23.4232 21.7756 23.4223C21.4509 23.3672 21.1171 23.4259 20.8306 23.5885C20.6518 23.6872 20.4989 23.8268 20.3844 23.9958C20.2698 24.1649 20.1969 24.3586 20.1715 24.5612C20.1371 24.8513 20.1579 25.1452 20.2327 25.4275C20.2327 25.4363 20.2415 25.4669 20.2094 25.4727C20.0985 25.5267 19.7981 25.6842 19.6917 25.7352C19.6844 25.7381 19.664 25.7425 19.6596 25.7265C19.6322 25.6179 19.5836 25.5159 19.5165 25.4262C19.4494 25.3366 19.3652 25.2612 19.2687 25.2044C19.1646 25.1617 19.0524 25.1424 18.94 25.148C18.8276 25.1535 18.7178 25.1837 18.6183 25.2365C18.484 25.3126 18.3746 25.4261 18.3033 25.5631C18.2534 25.6782 18.2446 25.8069 18.2783 25.9277C18.312 26.0485 18.3863 26.1541 18.4885 26.2267C18.4973 26.2354 18.5133 26.2558 18.4885 26.2631C18.3573 26.3346 18.3544 26.3506 18.2552 26.4979C18.2052 26.6034 18.1858 26.7209 18.1992 26.8369C18.2126 26.9529 18.2583 27.0628 18.331 27.1542C18.3857 27.235 18.4571 27.3031 18.5405 27.3538C18.6238 27.4046 18.7171 27.4367 18.814 27.448C18.9109 27.4594 19.0092 27.4497 19.102 27.4196C19.1948 27.3895 19.28 27.3398 19.3519 27.2738C19.3577 27.2694 19.3781 27.281 19.3883 27.3029C19.4432 27.389 19.5139 27.4637 19.5969 27.5231C19.6981 27.5802 19.8124 27.6103 19.9286 27.6103C20.0449 27.6103 20.1592 27.5802 20.2604 27.5231C20.3663 27.4647 20.4522 27.3757 20.5068 27.2677C20.5615 27.1598 20.5823 27.0379 20.5667 26.9179C20.5645 26.7743 20.5065 26.6372 20.4048 26.5358C20.3858 26.5125 20.4048 26.5008 20.4544 26.4688C21.3357 25.9638 22.3062 25.634 23.3127 25.4975C23.8337 25.4172 24.3646 25.4281 24.8819 25.5296C25.2193 25.6068 25.5336 25.7627 25.7992 25.9846C26.0157 26.1596 26.2141 26.356 26.3912 26.5708C26.4507 26.5806 26.5116 26.5676 26.5619 26.5344C26.6159 26.4166 26.6455 26.289 26.649 26.1595C26.6525 26.0299 26.6298 25.901 26.5823 25.7804C26.4616 25.4557 26.2704 25.1618 26.0223 24.92C26.0179 24.9171 26.0179 24.901 26.0179 24.8908C26.0121 24.8471 26.0398 24.8252 26.0938 24.7756C26.3235 24.5608 26.6064 24.4113 26.9133 24.3425C26.9527 24.3396 26.9687 24.3104 26.9425 24.2652C26.8316 24.0628 26.6512 23.9074 26.4346 23.8275C26.2181 23.7476 25.98 23.7487 25.7642 23.8306H25.7627C25.4786 23.9504 25.2447 24.1647 25.1006 24.4373C25.0919 24.4533 25.0685 24.5102 25.0467 24.4927C24.9154 24.481 24.6937 24.446 24.564 24.4344C24.5042 24.4315 24.5275 24.3775 24.529 24.3687C24.5829 24.1937 24.6802 24.0352 24.8119 23.9079C24.9883 23.7047 25.2101 23.5458 25.4594 23.4442C25.4644 23.4436 25.4691 23.4418 25.4733 23.4389C25.4774 23.4361 25.4808 23.4323 25.4831 23.4278C25.4854 23.4233 25.4866 23.4184 25.4865 23.4133C25.4864 23.4083 25.4851 23.4034 25.4827 23.399C25.4 23.2982 25.2967 23.2162 25.1798 23.1586C25.0628 23.101 24.9349 23.0691 24.8046 23.065C24.6386 23.0563 24.4727 23.0827 24.3177 23.1425C24.1626 23.2023 24.0219 23.2942 23.9048 23.4121C23.6257 23.7073 23.4528 24.087 23.4133 24.4913C23.4002 24.5248 23.3842 24.5423 23.3594 24.5423C23.2252 24.5639 23.0898 24.5761 22.954 24.5788C22.9321 24.5729 22.9335 24.5496 22.9335 24.5263C22.936 24.3201 22.9864 24.1174 23.0808 23.9342C23.2658 23.5834 23.5432 23.2899 23.8829 23.0854C23.9354 23.049 23.9383 22.9746 23.9208 22.9658C23.7569 22.897 23.5809 22.8618 23.4031 22.8623ZM7.00417 25.8008H17.3131V28.9946H9.20042C8.72642 28.45 8.28894 27.8746 7.89083 27.2723C7.57728 26.7921 7.28104 26.3008 7.00271 25.7994L7.00417 25.8008ZM21.6983 27.5158C21.5587 27.5103 21.4204 27.5452 21.3002 27.6165C20.9724 27.7889 20.7241 28.0816 20.6075 28.4331C20.5392 28.7073 20.5453 28.9948 20.625 29.2658C20.6294 29.276 20.6425 29.3008 20.6221 29.3096C20.5083 29.3533 20.4237 29.4044 20.3115 29.4496C20.3056 29.4496 20.2765 29.4569 20.2706 29.4423C20.176 29.2727 20.1375 29.0776 20.1606 28.8848C20.1836 28.692 20.2671 28.5114 20.399 28.369C20.4237 28.3471 20.4383 28.3179 20.3873 28.3004C20.245 28.2785 20.0994 28.2929 19.9641 28.342C19.8287 28.3912 19.708 28.4737 19.6129 28.5819C19.5036 28.7135 19.4304 28.8714 19.4005 29.0398C19.3706 29.2083 19.385 29.3817 19.4423 29.5429C19.4708 29.6764 19.5195 29.8047 19.5867 29.9235C19.591 29.9308 19.6304 29.9542 19.6071 29.9644L19.3883 30.1321C19.384 30.1365 19.3679 30.1438 19.3606 30.1321C19.3166 30.0491 19.2566 29.9757 19.184 29.9161C19.1114 29.8565 19.0277 29.8119 18.9377 29.785C18.8561 29.7657 18.7709 29.7673 18.6901 29.7897C18.6092 29.8122 18.5354 29.8547 18.4754 29.9133C18.4106 29.9773 18.3634 30.0569 18.3386 30.1445C18.3137 30.2321 18.312 30.3246 18.3336 30.4131C18.3552 30.5015 18.3994 30.5829 18.4618 30.6492C18.5242 30.7154 18.6028 30.7644 18.6898 30.7913C18.7 30.7956 18.7146 30.8088 18.6971 30.8204C18.5808 30.8992 18.4856 31.0054 18.42 31.1296C18.3805 31.2296 18.3712 31.339 18.3932 31.4442C18.4153 31.5494 18.4677 31.6459 18.544 31.7217C18.6013 31.772 18.6686 31.8095 18.7415 31.8319C18.8144 31.8543 18.8912 31.8609 18.9669 31.8515C19.0799 31.8144 19.1844 31.7549 19.2738 31.6764C19.3633 31.598 19.436 31.5023 19.4875 31.395C19.4904 31.3906 19.5181 31.3702 19.5327 31.3862C19.6267 31.522 19.7616 31.6242 19.9177 31.6779C19.9975 31.7057 20.0833 31.7115 20.1662 31.6949C20.249 31.6782 20.3259 31.6396 20.3887 31.5831C20.4744 31.5159 20.5364 31.423 20.5655 31.318C20.5946 31.2131 20.5894 31.1016 20.5506 30.9998C20.4802 30.8724 20.3795 30.7642 20.2575 30.6848C20.2385 30.6702 20.2531 30.6338 20.291 30.6046C20.8818 30.1296 21.5868 29.8178 22.3356 29.7004C22.8468 29.6326 23.3667 29.7168 23.8304 29.9425C24.0116 30.0488 24.177 30.1798 24.3219 30.3319C24.3408 30.3421 24.3948 30.361 24.4137 30.3435C24.5236 30.2426 24.5902 30.1031 24.5997 29.9542C24.6092 29.8053 24.5609 29.6585 24.4648 29.5444C24.382 29.4446 24.2798 29.3627 24.1644 29.3038C24.1596 29.2972 24.1561 29.2898 24.1542 29.2819C24.2444 29.0538 24.3964 28.8553 24.5931 28.7088C24.7277 28.6224 24.8722 28.5524 25.0233 28.5002C25.0554 28.4915 25.0496 28.471 25.0335 28.4317C24.8469 28.0044 24.1075 27.9883 23.759 28.2129C23.5461 28.3613 23.3728 28.5596 23.2544 28.7904C23.2471 28.805 23.2369 28.8488 23.2179 28.8356L22.9073 28.7423C22.9015 28.7423 22.9015 28.7073 22.9044 28.7015C23.0073 28.5014 23.1507 28.3248 23.3254 28.183C23.5001 28.0412 23.7024 27.9371 23.9194 27.8775C23.9412 27.8687 23.934 27.8483 23.9296 27.8367C23.7692 27.4458 22.9656 27.4794 22.5733 27.7288C22.2088 27.9705 21.9513 28.3434 21.8544 28.77C21.85 28.7992 21.8631 28.824 21.8442 28.8283C21.7352 28.8657 21.6229 28.8926 21.5087 28.9085C21.5002 28.9078 21.4923 28.904 21.4863 28.8979C21.4804 28.8917 21.477 28.8835 21.4767 28.875C21.4479 28.6789 21.4821 28.4787 21.5744 28.3033C21.7053 28.0852 21.8641 27.8852 22.0469 27.7083C22.0529 27.7022 22.0576 27.6948 22.0607 27.6868C22.0638 27.6787 22.0652 27.6701 22.0647 27.6614C22.0643 27.6528 22.0621 27.6444 22.0583 27.6366C22.0545 27.6289 22.0491 27.622 22.0425 27.6165C21.9382 27.5541 21.8198 27.519 21.6983 27.5144V27.5158ZM17.3146 29.4058V34.389C17.1717 34.3423 17.0025 34.281 16.8158 34.2183C16.5562 34.1308 16.2719 33.9981 15.9452 33.8581C14.9571 33.4447 14.0016 32.9572 13.0869 32.3998C12.5027 32.0253 11.944 31.6127 11.4142 31.1646C10.7596 30.6209 10.1427 30.0333 9.56792 29.4058H17.3117H17.3146Z" fill="#121212"/>
</svg>
