<svg width="35" height="35" viewBox="0 0 35 35" fill="none" xmlns="http://www.w3.org/2000/svg">
<path d="M17.5 5C10.5833 5 5 10.5833 5 17.5C5 24.4167 10.5833 30 17.5 30C24.4167 30 30 24.4167 30 17.5C30 10.5833 24.4167 5 17.5 5ZM17.5 6.46875C18.75 6.46875 19.9583 6.69792 21.0729 7.08333L17.6354 14.5104C17.5938 14.5521 17.5938 14.6458 17.5 14.6458C17.4062 14.6458 17.4063 14.5521 17.3646 14.5104L13.9271 7.08333C15.0417 6.69792 16.25 6.47917 17.5 6.47917V6.46875ZM12.1875 7.85417L16.1667 16.4271C16.25 16.6042 16.3438 16.6563 16.4583 16.6563H18.5417C18.6667 16.6563 18.75 16.6042 18.8438 16.4271L22.7708 7.85417C24.4167 8.79167 25.8333 10.1354 26.8333 11.7396L21.25 22.5417C21.2083 22.6354 21.1458 22.6771 21.1146 22.6771C21.0312 22.6771 21.0313 22.5938 20.9792 22.5417L18.8438 17.8125C18.75 17.6354 18.6667 17.5938 18.5417 17.5938H16.4583C16.3438 17.5938 16.25 17.6354 16.1563 17.8125L14.0208 22.5417C13.9688 22.5938 13.9792 22.6771 13.8854 22.6771C13.7917 22.6771 13.7917 22.5938 13.75 22.5417L8.125 11.7396C9.10417 10.1354 10.5417 8.79167 12.1875 7.85417ZM7.14583 13.8854L13.5729 26.3854C13.6562 26.5625 13.75 26.6979 13.9792 26.6979C14.1979 26.6979 14.2812 26.5625 14.375 26.3854L17.3646 19.7292C17.4063 19.6458 17.4583 19.5833 17.5 19.5833C17.5938 19.5833 17.5938 19.6875 17.6354 19.7292L20.6667 26.3854C20.7604 26.5625 20.8438 26.6979 21.0729 26.6979C21.2917 26.6979 21.3854 26.5625 21.4688 26.3854L27.9167 13.8854C28.3021 15 28.5313 16.2083 28.5313 17.5C28.4792 23.5312 23.5312 28.5313 17.5 28.5313C11.4688 28.5313 6.52083 23.5312 6.52083 17.5C6.52083 16.25 6.73958 15.0521 7.14583 13.8854Z" fill="#121212"/>
</svg>
