<svg width="57" height="29" viewBox="0 0 57 29" fill="none" xmlns="http://www.w3.org/2000/svg">
<g clip-path="url(#clip0_360_24437)">
<path d="M6.59716 0.5H56.9153C56.9153 0.5 54.9996 14.1713 45.6767 20.0868L52.3177 28.3685L33.8635 28.4342L31.1177 24.6878L29.9683 28.5L9.2395 28.4382C9.2395 28.4382 -0.357985 28.9233 1.06599 16.7479C1.51809 12.8055 6.59716 0.5 6.59716 0.5Z" fill="white"/>
<path d="M9.58991 4.20564L16.3663 4.18066C14.9742 8.18611 12.4902 15.1362 12.3293 15.9932C12.0151 17.6746 12.1058 18.6933 12.7265 19.4295C13.397 20.2182 14.4557 20.4299 15.2948 20.4667C16.941 20.5219 19.4952 20.6126 21.1554 20.4811C21.1554 20.4811 21.2538 20.5771 21.6663 19.5609L25.1783 9.11024H39.7374C39.7374 9.11024 39.2265 12.0023 36.2892 12.2652C34.4979 12.4237 32.6987 12.465 30.9023 12.3887L26.9663 24.4905L10.4915 24.622C9.3728 24.5431 7.59889 24.2197 6.38947 22.8539C5.11236 21.4079 5.20558 19.0101 5.34479 17.8586C5.38821 17.4984 6.10467 14.3869 6.21323 14.0464L9.58991 4.20564Z" fill="#D9211C"/>
<path d="M17.8986 4.24658L13.9664 16.1407C13.9664 16.1407 13.2218 18.5502 14.5462 18.821C16.1273 19.1444 17.813 19.1181 18.9778 19.084C19.6789 19.0655 20.1272 19.0301 20.1272 19.0301L20.6559 17.4526L23.6852 8.38217C24.0862 7.20959 23.9585 7.47249 25.0287 7.40677H42.4191C42.3632 7.81786 42.2674 8.22214 42.133 8.61353C41.059 11.8855 37.999 14.0242 34.6441 13.9283L31.883 13.9138L30.6697 18.449L35.5227 24.3645H44.3348L39.0348 17.5946H39.4179C39.4179 17.5946 47.783 17.5288 51.6143 4.25184L17.8986 4.24658Z" fill="#1D1D1B"/>
</g>
<defs>
<clipPath id="clip0_360_24437">
<rect width="56" height="28" fill="white" transform="translate(0.916016 0.5)"/>
</clipPath>
</defs>
</svg>
