<svg width="22" height="22" viewBox="0 0 22 22" fill="none" xmlns="http://www.w3.org/2000/svg">
<path d="M17.4165 9.32231C17.417 9.45925 17.3868 9.59456 17.3281 9.71829C17.2694 9.84203 17.1837 9.95103 17.0773 10.0373L11.5773 14.4648C11.4133 14.5996 11.2076 14.6733 10.9953 14.6733C10.7829 14.6733 10.5772 14.5996 10.4132 14.4648L4.91318 9.88148C4.72598 9.72588 4.60826 9.5023 4.58591 9.25991C4.56356 9.01752 4.63842 8.77618 4.79401 8.58898C4.94961 8.40178 5.17319 8.28406 5.41558 8.26171C5.65797 8.23936 5.89931 8.31422 6.08651 8.46981L10.9998 12.5673L15.9132 8.60731C16.0477 8.49522 16.2116 8.42401 16.3853 8.40212C16.5591 8.38023 16.7355 8.40857 16.8936 8.48379C17.0518 8.55901 17.1851 8.67796 17.2777 8.82656C17.3704 8.97516 17.4186 9.14719 17.4165 9.32231Z" fill="#232738"/>
</svg>
